# xmcd
#
# Track frame offsets: 
#        182
#        15490
#        26852
#        42935
#        56195
#        65572
#        76337
#        88197
#        100360
#        115522
#        131040
#        140355
#        154730
#        171465
#        189027
#        212032
#        233690
#        245252
#        260715
#
# Disc length: 3702 seconds
#
# Revision: 2
# Processed by: cddbd v1.4PL0 Copyright (c) Steve Scherf et al.
# Submitted via: ExactAudioCopy v0.90b3
#
DISCID=070e7413
DTITLE=Ted Hawkins - The Kershaw Sessions
DYEAR=1900
DGENRE=blues
TTITLE0=Bring It On Home Daddy
TTITLE1=Cold And Bitter Tears
TTITLE2=Happy Hour
TTITLE3=Ladder Of Success
TTITLE4=Sorry You're Sick
TTITLE5=Bad Dog
TTITLE6=All I Have To Offer You Is Me
TTITLE7=Watch Your Step
TTITLE8=Daytime Friend
TTITLE9=I Got What I Wanted
TTITLE10=Just One Look
TTITLE11=Bring It On Home Daddy 2
TTITLE12=Happy Hour 2
TTITLE13=Started Loving You Again-All I Have To Offer You Is Me
TTITLE14=Who Do You Love?
TTITLE15=Dollar Tree
TTITLE16=Ain't Got Nothing Yet
TTITLE17=No Other Love For Me
TTITLE18=Nowhere To Run
EXTD=
EXTT0=
EXTT1=
EXTT2=
EXTT3=
EXTT4=
EXTT5=
EXTT6=
EXTT7=
EXTT8=
EXTT9=
EXTT10=
EXTT11=
EXTT12=
EXTT13=
EXTT14=
EXTT15=
EXTT16=
EXTT17=
EXTT18=
PLAYORDER=
